<?xml version="1.0" standalone="no"?>
<!DOCTYPE svg PUBLIC "-//W3C//DTD SVG 1.1//EN" "http://www.w3.org/Graphics/SVG/1.1/DTD/svg11.dtd" >
<svg xmlns="http://www.w3.org/2000/svg">
<metadata>
<json>
<![CDATA[
{
	"fontFamily": "colibri",
	"majorVersion": 1,
	"minorVersion": 16,
	"fontURL": "http://extendthemes.com",
	"description": "Colibri icons\nFont generated by IcoMoon.",
	"designer": "ExtendThemes",
	"designerURL": "http://extendthemes.com",
	"version": "Version 1.16",
	"fontId": "colibri",
	"psName": "colibri",
	"subFamily": "Regular",
	"fullName": "colibri"
}
]]>
</json>
</metadata>
<defs>
<font id="colibri" horiz-adv-x="1024">
<font-face units-per-em="1024" ascent="960" descent="-64" />
<missing-glyph horiz-adv-x="1024" />
<glyph unicode="&#x20;" horiz-adv-x="512" d="" />
<glyph unicode="&#xe900;" glyph-name="accordion-menu" data-tags="accordion" d="M872 871.68h-720c-26.51 0-48-21.49-48-48s21.49-48 48-48v0h720c26.51 0 48 21.49 48 48s-21.49 48-48 48v0zM872 288h-720c-26.51 0-48-21.49-48-48s21.49-48 48-48v0h720c26.51 0 48 21.49 48 48s-21.49 48-48 48v0zM872 130.24h-720c-26.51 0-48-21.49-48-48s21.49-48 48-48v0h720c26.51 0 48 21.49 48 48s-21.49 48-48 48v0zM930.88 732.8h-837.76c0 0 0 0-0.001 0-51.316 0-92.938-41.509-93.119-92.783v-198.417c0 0 0 0 0-0.001 0-51.252 41.548-92.8 92.8-92.8 0.113 0 0.225 0 0.337 0.001h837.743c0.095 0 0.207-0.001 0.32-0.001 51.252 0 92.8 41.548 92.8 92.8 0 0 0 0 0 0.001v0 198.4c-0.182 51.291-41.803 92.8-93.119 92.8 0 0 0 0-0.001 0v0zM93.12 412.8c-0.095-0.001-0.207-0.002-0.32-0.002-15.906 0-28.8 12.894-28.8 28.8 0 0.001 0 0.001 0 0.002v0 198.4c0 16.083 13.037 29.12 29.12 29.12v0h837.76c16.083 0 29.12-13.037 29.12-29.12v0-198.4c0-0.001 0-0.001 0-0.002 0-15.906-12.894-28.8-28.8-28.8-0.113 0-0.225 0.001-0.337 0.002h0.017z" />
<glyph unicode="&#xe901;" glyph-name="page-title" data-tags="page-title" d="M872 336.32h-720c-26.51 0-48-21.49-48-48s21.49-48 48-48v0h720c26.51 0 48 21.49 48 48s-21.49 48-48 48v0zM872 496.32h-720c-26.51 0-48-21.49-48-48s21.49-48 48-48h720c26.51 0 48 21.49 48 48s-21.49 48-48 48v0zM706.24 176.32h-564.48c-21.584-2.967-38.031-21.29-38.031-43.453 0-1.715 0.098-3.406 0.29-5.069l-0.019 0.203c-0.151-1.365-0.237-2.948-0.237-4.551 0-22.152 16.429-40.466 37.767-43.423l0.23-0.026h564.48c21.568 2.983 37.997 21.297 37.997 43.449 0 1.603-0.086 3.186-0.254 4.744l0.017-0.193c0.151 1.365 0.237 2.948 0.237 4.551 0 22.152-16.429 40.466-37.767 43.423l-0.23 0.026zM792.32 815.68h-560.64c-70.692 0-128-57.308-128-128s57.308-128 128-128v0h560.64c70.692 0 128 57.308 128 128s-57.308 128-128 128v0z" />
<glyph unicode="&#xe902;" glyph-name="blog-posts" data-tags="blog-posts" d="M262.080 832v-128h-128v128h128zM294.080 896h-192c-17.673 0-32-14.327-32-32v0-192c0-17.673 14.327-32 32-32v0h192c17.673 0 32 14.327 32 32v0 192c0 17.673-14.327 32-32 32v0zM761.28 896h-361.92c-8.64 0-15.68-14.4-15.68-32s7.040-32 15.68-32h361.92c8.96 0 16 14.4 16 32s-7.040 32-16 32zM936.64 800h-529.92c-12.8 0-23.040-14.4-23.040-32s10.24-32 23.040-32h529.92c12.8 0 23.040 14.4 23.040 32s-10.24 32-23.040 32zM859.2 704h-455.68c-10.88 0-19.84-14.4-19.84-32s8.96-32 19.84-32h455.68c10.88 0 19.84 14.4 19.84 32s-8.96 32-19.84 32zM262.080 512v-128h-128v128h128zM294.080 576h-192c-17.673 0-32-14.327-32-32v0-192c0-17.673 14.327-32 32-32v0h192c17.673 0 32 14.327 32 32v0 192c0 17.673-14.327 32-32 32v0zM761.28 576h-361.92c-8.64 0-15.68-14.4-15.68-32s7.040-32 15.68-32h361.92c8.96 0 16 14.4 16 32s-7.040 32-16 32zM936.64 480h-529.92c-12.8 0-23.040-14.4-23.040-32s10.24-32 23.040-32h529.92c12.8 0 23.040 14.4 23.040 32s-10.24 32-23.040 32zM859.2 384h-455.68c-10.88 0-19.84-14.4-19.84-32s8.96-32 19.84-32h455.68c10.88 0 19.84 14.4 19.84 32s-8.96 32-19.84 32zM262.080 192v-128h-128v128h128zM294.080 256h-192c-17.673 0-32-14.327-32-32v0-192c0-17.673 14.327-32 32-32v0h192c17.673 0 32 14.327 32 32v0 192c0 17.673-14.327 32-32 32v0zM761.28 256h-361.92c-8.64 0-15.68-14.4-15.68-32s7.040-32 15.68-32h361.92c8.96 0 16 14.4 16 32s-7.040 32-16 32zM936.64 160h-529.92c-12.8 0-23.040-14.4-23.040-32s10.24-32 23.040-32h529.92c12.8 0 23.040 14.4 23.040 32s-10.24 32-23.040 32zM859.2 64h-455.68c-10.88 0-19.84-14.4-19.84-32s8.96-32 19.84-32h455.68c10.88 0 19.84 14.4 19.84 32s-8.96 32-19.84 32z" />
<glyph unicode="&#xe903;" glyph-name="multiple-images" data-tags="multiple-images" d="M294.4 585.28c0-40.648-32.952-73.6-73.6-73.6s-73.6 32.952-73.6 73.6c0 40.648 32.952 73.6 73.6 73.6s73.6-32.952 73.6-73.6zM785.28 119.68v636.8c0.001 0.096 0.002 0.209 0.002 0.322 0 13.432-10.888 24.32-24.32 24.32-0.113 0-0.226-0.001-0.339-0.002h-735.983c-0.096 0.001-0.209 0.002-0.322 0.002-13.432 0-24.32-10.888-24.32-24.32 0-0.113 0.001-0.226 0.002-0.339v0.017-636.8c0.356-13.154 11.104-23.682 24.312-23.682 0.115 0 0.231 0.001 0.346 0.002h735.983c0.098-0.001 0.213-0.002 0.328-0.002 13.207 0 23.956 10.528 24.311 23.649l0.001 0.033zM736 168.96c0.001-0.095 0.002-0.207 0.002-0.32 0-13.432-10.888-24.32-24.32-24.32-0.001 0-0.001 0-0.002 0h-638.080c-13.608 0-24.64 11.032-24.64 24.64v0 538.56c0.178 13.536 11.104 24.462 24.623 24.64h638.097c13.47-0.181 24.32-11.142 24.32-24.638 0-0.001 0-0.001 0-0.002v0zM490.88 536.32l-147.2-245.12-97.6 71.040-0.64 2.56-5.76 2.24 4.48-3.52-145.92-121.28v-48.96h588.8v48.96l-73.6 220.48-122.56 73.6zM169.92 854.4c0 13.608 11.032 24.64 24.64 24.64v0h637.44c13.608 0 24.64-11.032 24.64-24.64v0-538.56c0-13.608-11.032-24.64-24.64-24.64h-27.2v-48.96h76.16c0.096-0.001 0.209-0.002 0.322-0.002 13.432 0 24.32 10.888 24.32 24.32 0 0.113-0.001 0.226-0.002 0.339v-0.017 636.48c0.001 0.096 0.002 0.209 0.002 0.322 0 13.32-10.708 24.139-23.985 24.318h-736.017c-0.096 0.001-0.209 0.002-0.322 0.002-13.432 0-24.32-10.888-24.32-24.32 0-0.113 0.001-0.226 0.002-0.339v0.017-90.88h48.96zM999.36 653.76h-76.16v-48.96h27.2c13.608 0 24.64-11.032 24.64-24.64v0-538.56c0-13.608-11.032-24.64-24.64-24.64h-638.080c-0.001 0-0.001 0-0.002 0-13.432 0-24.32 10.888-24.32 24.32 0 0.113 0.001 0.225 0.002 0.337v-0.017 41.92h-49.28v-90.88c-0.001-0.096-0.002-0.209-0.002-0.322 0-13.432 10.888-24.32 24.32-24.32 0.113 0 0.226 0.001 0.339 0.002h735.983c0.096-0.001 0.209-0.002 0.322-0.002 13.432 0 24.32 10.888 24.32 24.32 0 0.113-0.001 0.226-0.002 0.339v-0.017 636.48c0.001 0.096 0.002 0.209 0.002 0.322 0 13.432-10.888 24.32-24.32 24.32-0.113 0-0.226-0.001-0.339-0.002h0.017z" />
<glyph unicode="&#xe904;" glyph-name="button" data-tags="button" d="M764.48 834.24h-504.96c-2.717 0.102-5.907 0.16-9.112 0.16-143.329 0-259.52-116.191-259.52-259.52s116.191-259.52 259.52-259.52c3.204 0 6.395 0.058 9.571 0.173l-0.46-0.013h272.32v96h-272.32c-2.158-0.102-4.688-0.16-7.232-0.16-90.31 0-163.52 73.21-163.52 163.52s73.21 163.52 163.52 163.52c2.544 0 5.073-0.058 7.589-0.173l-0.357 0.013h504.96c2.158 0.102 4.688 0.16 7.232 0.16 90.31 0 163.52-73.21 163.52-163.52s-73.21-163.52-163.52-163.52c-2.544 0-5.073 0.058-7.589 0.173l0.357-0.013h-72l96-96c131.893 13.451 233.935 123.937 233.935 258.256 0 142.322-114.564 257.886-256.502 259.503l-0.153 0.001zM570.88 506.24c-2.68 2.772-6.433 4.493-10.587 4.493-0.216 0-0.43-0.005-0.644-0.014l0.030 0.001c-0.914 0.147-1.967 0.231-3.040 0.231s-2.126-0.084-3.154-0.245l0.114 0.015c-5.837-2.623-9.844-8.354-9.92-15.030v-377.93c0.122-6.585 4.126-12.205 9.815-14.679l0.105-0.041c0.914-0.142 1.967-0.223 3.040-0.223s2.126 0.081 3.155 0.238l-0.115-0.014c4.385 0.101 8.328 1.916 11.199 4.799l78.401 78.401 47.68-113.28c2.572-5.838 8.308-9.84 14.978-9.84 2.214 0 4.325 0.441 6.25 1.24l-0.108-0.040 44.48 18.88c5.672 2.543 9.552 8.14 9.552 14.643 0 2.222-0.453 4.338-1.272 6.261l0.040-0.105-50.24 119.36h96c6.653 0.18 12.298 4.315 14.681 10.131l0.039 0.109c0.806 1.806 1.276 3.913 1.276 6.13 0 4.387-1.839 8.345-4.789 11.144l-0.007 0.006z" />
<glyph unicode="&#xe905;" glyph-name="columns" data-tags="columns" d="M614.4 755.2h-204.8v-614.4h204.8zM716.8 755.2v-614.4h204.8v614.4zM307.2 755.2h-204.8v-614.4h204.8zM0 857.6h1024v-819.2h-1024z" />
<glyph unicode="&#xe906;" glyph-name="contact-form" data-tags="contact-form" d="M983.040 720h-942.080c-23.092-1.979-41.086-21.211-41.086-44.646 0-1.18 0.046-2.35 0.135-3.508l-0.010 0.153c-0.080-1.004-0.126-2.174-0.126-3.354 0-23.435 17.994-42.667 40.919-44.634l0.166-0.012h942.080c23.092 1.979 41.086 21.211 41.086 44.646 0 1.18-0.046 2.35-0.135 3.508l0.010-0.153c0.080 1.004 0.126 2.174 0.126 3.354 0 23.435-17.994 42.667-40.919 44.634l-0.166 0.012zM928 112h-224c-26.51 0-48-21.49-48-48s21.49-48 48-48v0h224c26.51 0 48 21.49 48 48s-21.49 48-48 48v0zM983.040 880h-942.080c-23.092-1.979-41.086-21.211-41.086-44.646 0-1.18 0.046-2.35 0.135-3.508l-0.010 0.153c-0.080-1.004-0.126-2.174-0.126-3.354 0-23.435 17.994-42.667 40.919-44.634l0.166-0.012h942.080c23.092 1.979 41.086 21.211 41.086 44.646 0 1.18-0.046 2.35-0.135 3.508l0.010-0.153c0.080 1.004 0.126 2.174 0.126 3.354 0 23.435-17.994 42.667-40.919 44.634l-0.166 0.012zM930.88 560h-837.76c-51.429 0-93.12-41.691-93.12-93.12v0-197.76c0-51.429 41.691-93.12 93.12-93.12v0h837.76c51.429 0 93.12 41.691 93.12 93.12v0 197.76c0 51.429-41.691 93.12-93.12 93.12v0zM93.12 240c-16.083 0-29.12 13.037-29.12 29.12v197.76c0 16.083 13.037 29.12 29.12 29.12v0h837.76c16.083 0 29.12-13.037 29.12-29.12v0-197.76c0-16.083-13.037-29.12-29.12-29.12v0z" />
<glyph unicode="&#xe907;" glyph-name="content-swap" data-tags="content-swap" d="M401.92 704h-323.84c-1.153 0.111-2.493 0.174-3.847 0.174-21.649 0-39.523-16.164-42.211-37.082l-0.022-0.212v-437.76c2.71-21.13 20.584-37.294 42.233-37.294 1.354 0 2.694 0.063 4.016 0.187l-0.169-0.013h323.84c1.153-0.111 2.493-0.174 3.847-0.174 21.649 0 39.523 16.164 42.211 37.082l0.022 0.212v437.76c-2.71 21.13-20.584 37.294-42.233 37.294-1.354 0-2.694-0.063-4.016-0.187l0.169 0.013zM352 268.8h-224v358.4h224zM945.92 704h-323.84c-1.153 0.111-2.493 0.174-3.847 0.174-21.649 0-39.523-16.164-42.211-37.082l-0.022-0.212v-437.76c2.71-21.13 20.584-37.294 42.233-37.294 1.354 0 2.694 0.063 4.016 0.187l-0.169-0.013h323.84c1.153-0.111 2.493-0.174 3.847-0.174 21.649 0 39.523 16.164 42.211 37.082l0.022 0.212v437.76c-2.71 21.13-20.584 37.294-42.233 37.294-1.354 0-2.694-0.063-4.016-0.187l0.169 0.013zM896 268.8h-224v358.4h224zM634.56 800c0.813 0.94 1.555 1.987 2.19 3.104l0.050 0.096c2.022 3.911 3.208 8.537 3.208 13.44s-1.186 9.529-3.286 13.607l0.078-0.167c-0.59 1.235-1.34 2.293-2.241 3.201l0.001-0.001c-1.628 2.982-3.656 5.52-6.052 7.656l-0.028 0.024s0 0 0 0l-128 96c-5.281 3.996-11.96 6.4-19.2 6.4-17.673 0-32-14.327-32-32 0-10.433 4.993-19.7 12.72-25.542l0.080-0.058 49.92-35.52h-160c-17.673 0-32-14.327-32-32s14.327-32 32-32h160l-51.2-38.4c-7.546-5.91-12.349-15.022-12.349-25.256 0-6.972 2.23-13.423 6.015-18.679l-0.065 0.095c5.9-7.807 15.167-12.8 25.6-12.8v0c7.24 0 13.919 2.404 19.28 6.458l-0.080-0.058 128 96s0 0 0 1.6c2.858 1.17 5.302 2.793 7.365 4.805l-0.005-0.005zM389.44 64c-0.813 0.94-1.555 1.987-2.19 3.104l-0.050 0.096c-2.022 3.911-3.208 8.537-3.208 13.44s1.186 9.529 3.286 13.607l-0.078-0.167c0.59 1.235 1.34 2.293 2.241 3.201l-0.001-0.001c1.628 2.982 3.656 5.52 6.052 7.656l0.028 0.024s0 0 0 0l128 96c5.281 3.996 11.96 6.4 19.2 6.4 17.673 0 32-14.327 32-32 0-10.433-4.993-19.7-12.72-25.542l-0.080-0.058-49.92-35.52h160c17.673 0 32-14.327 32-32s-14.327-32-32-32v0h-160l51.2-38.4c7.807-5.9 12.8-15.167 12.8-25.6 0-7.24-2.404-13.919-6.458-19.28l0.058 0.080c-5.9-7.807-15.167-12.8-25.6-12.8v0c-7.24 0-13.919 2.404-19.28 6.458l0.080-0.058-128 96s0 0 0 1.6c-2.902 1.446-5.35 3.383-7.332 5.727l-0.028 0.033z" />
<glyph unicode="&#xe908;" glyph-name="counters" data-tags="counters" d="M512 944c-273.933 0-496-222.067-496-496s222.067-496 496-496c273.933 0 496 222.067 496 496v0c-0.182 273.86-222.14 495.817-495.982 496h-0.018zM512 43.84c-0.095 0-0.207 0-0.32 0-223.211 0-404.16 180.949-404.16 404.16s180.949 404.16 404.16 404.16c223.211 0 404.16-180.948 404.16-404.159v-0.001c-0.182-223.026-180.84-403.796-403.805-404.16h-0.035zM259.84 544c-12.764-10.591-27.609-19.256-43.749-25.258l-1.051-0.342v-47.68c26.617 8.94 49.417 23.075 68.203 41.322l-0.043-0.042v-198.72h52.8v275.2h-42.88c-6.743-18.205-18.252-33.323-33.023-44.297l-0.257-0.183zM530.24 406.4c12.45 10.882 23.746 22.28 34.186 34.435l0.374 0.445c8.306 10.139 15.393 21.744 20.762 34.26l0.358 0.94c4.252 10.454 6.72 22.582 6.72 35.286 0 0.082 0 0.164 0 0.246v-0.013c0.003 0.264 0.005 0.576 0.005 0.888 0 21.122-8.975 40.147-23.32 53.47l-0.046 0.042c-15.598 13.802-36.23 22.23-58.831 22.23-1.819 0-3.624-0.055-5.416-0.162l0.246 0.012c-1.207 0.054-2.623 0.085-4.046 0.085-21.77 0-41.848-7.246-57.952-19.459l0.239 0.174c-17.597-15.268-28.835-37.464-29.438-62.296l-0.002-0.104 52.48-5.12c0.018 12.146 4.236 23.304 11.279 32.102l-0.079-0.102c6.286 6.164 14.905 9.968 24.413 9.968 0.643 0 1.281-0.017 1.915-0.052l-0.088 0.004c1.162 0.149 2.506 0.235 3.869 0.235 17.673 0 32-14.327 32-32 0-1.664-0.127-3.298-0.372-4.893l0.023 0.178c-0.372-12.059-4.396-23.111-10.994-32.164l0.114 0.164c-13.443-16.537-27.692-31.293-43.098-44.759l-0.422-0.361c-22.397-19.276-41.914-40.926-58.46-64.792l-0.74-1.128c-9.394-15.004-15.783-32.817-17.871-51.922l-0.049-0.558h184.64v49.6h-104.64c3.287 5.565 6.776 10.379 10.661 14.838l-0.101-0.118c4.48 4.8 15.040 15.040 31.68 30.4zM794.88 437.44c-9.329 11.525-22.405 19.692-37.353 22.653l-0.407 0.067c22.778 10.136 38.372 32.569 38.372 58.645 0 17.406-6.949 33.19-18.224 44.727l0.012-0.012c-14.869 15.445-35.723 25.039-58.817 25.039-1.26 0-2.514-0.029-3.76-0.085l0.177 0.006c-0.34 0.004-0.741 0.007-1.143 0.007-14.436 0-28.127-3.186-40.409-8.894l0.592 0.247c-11.651-5.247-21.272-13.224-28.337-23.148l-0.143-0.212c-7.246-11.471-12.605-24.912-15.253-39.302l-0.107-0.698 48.64-8.32c0.636 10.712 5.026 20.292 11.86 27.542l-0.020-0.022c5.666 5.18 13.243 8.354 21.561 8.354 0.52 0 1.038-0.012 1.552-0.037l-0.073 0.003c0.478 0.029 1.036 0.045 1.598 0.045 7.876 0 15.005-3.197 20.161-8.364l0.001-0.001c5.167-5.392 8.347-12.723 8.347-20.797 0-0.451-0.010-0.9-0.030-1.347l0.002 0.064c0.025-0.469 0.038-1.017 0.038-1.569 0-9.73-4.342-18.445-11.195-24.314l-0.043-0.036c-7.523-5.922-17.136-9.498-27.583-9.498-1.555 0-3.092 0.079-4.607 0.234l0.19-0.016-5.76-43.2c7.131 2.449 15.355 3.955 23.902 4.158l0.098 0.002c0.102 0.001 0.222 0.002 0.342 0.002 10.326 0 19.584-4.571 25.862-11.8l0.036-0.042c6.627-7.762 10.66-17.915 10.66-29.009 0-1.053-0.036-2.097-0.108-3.131l0.008 0.14c0.011-0.381 0.017-0.829 0.017-1.278 0-11.737-4.241-22.484-11.275-30.792l0.058 0.070c-6.555-7.66-16.233-12.483-27.037-12.483-0.17 0-0.34 0.001-0.509 0.004h0.026c-0.114-0.001-0.25-0.002-0.385-0.002-9.811 0-18.709 3.907-25.223 10.25l0.008-0.008c-7.465 7.793-12.316 18.144-13.112 29.611l-0.008 0.149-51.2-6.080c1.965-22.458 12.548-42.121 28.38-55.914l0.1-0.086c16.703-13.666 38.274-21.948 61.778-21.948 25.57 0 48.851 9.801 66.291 25.851l-0.069-0.063c16.359 15.132 26.567 36.709 26.567 60.671 0 0.383-0.003 0.765-0.008 1.147l0.001-0.058c0.002 0.184 0.003 0.402 0.003 0.621 0 16.083-5.677 30.84-15.136 42.377l0.094-0.118z" />
<glyph unicode="&#xe909;" glyph-name="divider" data-tags="divider" d="M896 512v448h-118.080v-336h-531.84v336h-118.080v-448h768zM640 480h192v-64h-192v64zM448 480h128v-64h-128v64zM896 480h128v-64h-128v64zM192 480h192v-64h-192v64zM0 480h128v-64h-128v64zM128 384v-448h118.080v336h531.84v-336h118.080v448h-768z" />
<glyph unicode="&#xe90a;" glyph-name="dropdown-menu" data-tags="dropdown" d="M868.16 783.040l-52.16-55.36h104l-51.84 55.36zM960 928h-896c-35.548-0.879-64.029-29.904-64.029-65.581 0-0.682 0.010-1.361 0.031-2.038l-0.002 0.099v-205.76c-0.005-0.294-0.007-0.64-0.007-0.988 0-35.734 28.433-64.827 63.909-65.89l0.098-0.002h896c35.574 1.065 64.007 30.158 64.007 65.892 0 0.347-0.003 0.694-0.008 1.040l0.001-0.052v205.76c0.018 0.578 0.029 1.257 0.029 1.939 0 35.677-28.481 64.703-63.947 65.58l-0.081 0.002zM944 844.8v-172.8h-168.32v171.84zM695.68 844.8v-172.8h-615.040v171.84zM762.56 508.8h-720c-26.51 0-48-21.49-48-48s21.49-48 48-48h720c26.51 0 48 21.49 48 48s-21.49 48-48 48v0zM762.56 348.8h-720c-26.51 0-48-21.49-48-48s21.49-48 48-48v0h720c26.51 0 48 21.49 48 48s-21.49 48-48 48v0zM762.56 188.8h-720c-26.51 0-48-21.49-48-48s21.49-48 48-48v0h720c26.51 0 48 21.49 48 48s-21.49 48-48 48v0z" />
<glyph unicode="&#xe90b;" glyph-name="grid-gallery" data-tags="grid-gallery" d="M416 928h-336c-0.788 0.049-1.709 0.077-2.637 0.077-25.096 0-45.44-20.344-45.44-45.44 0-0.928 0.028-1.849 0.083-2.762l-0.006 0.126v-336c-0.049-0.788-0.077-1.709-0.077-2.637 0-25.096 20.344-45.44 45.44-45.44 0.928 0 1.849 0.028 2.762 0.083l-0.126-0.006h336c0.788-0.049 1.709-0.077 2.637-0.077 25.096 0 45.44 20.344 45.44 45.44 0 0.928-0.028 1.849-0.083 2.762l0.006-0.126v336c0.049 0.788 0.077 1.709 0.077 2.637 0 25.096-20.344 45.44-45.44 45.44-0.928 0-1.849-0.028-2.762-0.083l0.126 0.006zM368 592h-240v240h240zM944 928h-336c-0.788 0.049-1.709 0.077-2.637 0.077-25.096 0-45.44-20.344-45.44-45.44 0-0.928 0.028-1.849 0.083-2.762l-0.006 0.126v-336c-0.049-0.788-0.077-1.709-0.077-2.637 0-25.096 20.344-45.44 45.44-45.44 0.928 0 1.849 0.028 2.762 0.083l-0.126-0.006h336c0.788-0.049 1.709-0.077 2.637-0.077 25.096 0 45.44 20.344 45.44 45.44 0 0.928-0.028 1.849-0.083 2.762l0.006-0.126v336c0.049 0.788 0.077 1.709 0.077 2.637 0 25.096-20.344 45.44-45.44 45.44-0.928 0-1.849-0.028-2.762-0.083l0.126 0.006zM896 592h-240v240h240zM944 400h-336c-0.788 0.049-1.709 0.077-2.637 0.077-25.096 0-45.44-20.344-45.44-45.44 0-0.928 0.028-1.849 0.083-2.762l-0.006 0.126v-336c-0.049-0.788-0.077-1.709-0.077-2.637 0-25.096 20.344-45.44 45.44-45.44 0.928 0 1.849 0.028 2.762 0.083l-0.126-0.006h336c0.788-0.049 1.709-0.077 2.637-0.077 25.096 0 45.44 20.344 45.44 45.44 0 0.928-0.028 1.849-0.083 2.762l0.006-0.126v336c0.049 0.788 0.077 1.709 0.077 2.637 0 25.096-20.344 45.44-45.44 45.44-0.928 0-1.849-0.028-2.762-0.083l0.126 0.006zM896 64h-240v240h240zM416 400h-336c-0.788 0.049-1.709 0.077-2.637 0.077-25.096 0-45.44-20.344-45.44-45.44 0-0.928 0.028-1.849 0.083-2.762l-0.006 0.126v-336c-0.049-0.788-0.077-1.709-0.077-2.637 0-25.096 20.344-45.44 45.44-45.44 0.928 0 1.849 0.028 2.762 0.083l-0.126-0.006h336c0.788-0.049 1.709-0.077 2.637-0.077 25.096 0 45.44 20.344 45.44 45.44 0 0.928-0.028 1.849-0.083 2.762l0.006-0.126v336c0.049 0.788 0.077 1.709 0.077 2.637 0 25.096-20.344 45.44-45.44 45.44-0.928 0-1.849-0.028-2.762-0.083l0.126 0.006zM368 64h-240v240h240z" />
<glyph unicode="&#xe90c;" glyph-name="heading" data-tags="heading" d="M994.56 0c-54.080 0-108.8 4.16-163.2 4.16s-108.16-4.16-162.24-4.16c-20.8 0-32 21.44-32 38.4 0 52.16 61.44 29.76 93.44 49.6 20.16 12.48 20.16 61.44 20.16 81.6v228.16c0.158 2.725 0.248 5.912 0.248 9.12s-0.090 6.395-0.268 9.559l0.020-0.439c-7.087 1.629-15.226 2.563-23.582 2.563-2.963 0-5.898-0.117-8.801-0.348l0.383 0.024h-413.12c-2.493 0.199-5.397 0.313-8.327 0.313-8.388 0-16.558-0.93-24.413-2.692l0.741 0.14c-0.158-2.725-0.248-5.912-0.248-9.12s0.090-6.395 0.268-9.559l-0.020 0.439v-216.32c0-22.080 0-82.88 22.72-96 32-18.56 104.32 7.68 104.32-44.8 0-17.6-8.64-40.96-30.080-40.96-57.28 0-114.24 4.16-170.56 4.16s-104-3.84-157.12-3.84c-20.16 0-29.44 22.080-29.44 38.4 0 50.88 56.64 29.76 86.72 49.6 19.52 12.8 20.16 64 20.16 83.52v507.52c0 27.84 4.48 117.76-23.36 133.44s-96.96-9.92-96.96 42.56c0 16.96 8 40.96 29.44 40.96 56.64 0 113.6-4.16 170.24-4.16 51.52 0 103.68 4.16 155.2 4.16 22.080 0 32-23.36 32-40.96 0-49.92-60.8-25.6-90.88-43.52-22.72-11.52-22.72-72.32-22.72-93.44v-186.56c-0.153-2.819-0.239-6.12-0.239-9.44s0.087-6.621 0.259-9.898l-0.019 0.458c3.551-0.384 7.67-0.603 11.84-0.603s8.289 0.219 12.346 0.647l-0.506-0.043h430.4c3.502-0.369 7.567-0.579 11.68-0.579s8.178 0.21 12.182 0.621l-0.502-0.042c0.153 2.819 0.239 6.12 0.239 9.44s-0.087 6.621-0.259 9.898l0.019-0.458v186.56c0 21.44 0 80.96-21.44 93.44-32 17.28-92.16-6.080-92.16 43.52 0 17.6 8.64 40.96 32 40.96 54.080 0 108.16-4.16 162.24-4.16s105.6 4.16 158.4 4.16c22.080 0 30.4-23.36 30.4-40.96 0-50.56-64-24.96-93.76-42.88-20.8-13.12-21.44-72.96-21.44-94.080v-550.080c0-19.2 0-70.080 20.8-81.6 32-18.88 97.6 5.12 97.6-45.44 0.64-16.96-7.36-40.96-28.8-40.96z" />
<glyph unicode="&#xe90d;" glyph-name="icon-list" data-tags="icon-list" d="M851.84 795.52c-4.923 5.432-11.971 8.859-19.822 8.96h-438.098c-0.146 0.003-0.319 0.004-0.492 0.004-7.814 0-14.885-3.183-19.987-8.323l-0.002-0.002c-4.902-4.919-7.933-11.705-7.933-19.2s3.031-14.281 7.934-19.201l-0.001 0.001c5.256-4.956 12.361-8.002 20.177-8.002 0.107 0 0.213 0.001 0.319 0.002h438.064c0.269-0.010 0.585-0.015 0.902-0.015 7.847 0 14.919 3.323 19.883 8.639l0.015 0.016c4.692 4.785 7.61 11.325 7.68 18.546v0.014c-0.266 7.376-3.537 13.939-8.618 18.54l-0.022 0.020zM950.72 733.76c-5.906 4.978-13.599 8.002-21.999 8.002-0.141 0-0.282-0.001-0.422-0.003h-531.179c-0.227 0.006-0.495 0.009-0.763 0.009-7.974 0-15.3-2.778-21.062-7.419l0.065 0.050c-5.997-4.668-9.818-11.888-9.818-20s3.821-15.332 9.761-19.958l0.057-0.042c5.697-4.591 13.023-7.369 20.997-7.369 0.268 0 0.536 0.003 0.803 0.009l-0.040-0.001h530.88c0.119-0.001 0.26-0.002 0.401-0.002 8.4 0 16.094 3.025 22.051 8.045l-0.052-0.042c5.724 4.662 9.405 11.642 9.599 19.488l0.001 0.032c-0.118 7.732-3.689 14.606-9.236 19.165l-0.044 0.035zM355.84 788.8c0 7.68-5.12 16.32-19.52 18.56l-74.24 10.56-32 64c-2.979 7.864-10.448 13.353-19.2 13.353s-16.221-5.489-19.153-13.213l-0.047-0.141-32-64-73.92-10.56c-14.4-2.24-19.52-10.88-19.52-18.56 0.317-6.286 3.217-11.837 7.651-15.656l0.029-0.024 51.52-50.88-12.8-72c-0.057-0.718-0.090-1.555-0.090-2.4s0.033-1.682 0.097-2.51l-0.007 0.11c-0.001-0.065-0.001-0.142-0.001-0.219 0-4.482 1.44-8.628 3.882-12l-0.041 0.060c4-4.441 9.771-7.221 16.19-7.221 4.322 0 8.35 1.26 11.737 3.433l-0.087-0.052 65.6 33.6 65.6-33.6c3.627-2.015 7.955-3.201 12.56-3.201 0.084 0 0.169 0 0.253 0.001h-0.013c0.301-0.018 0.653-0.028 1.008-0.028 9.897 0 17.92 8.023 17.92 17.92 0 0.46-0.017 0.917-0.051 1.368l0.004-0.060c0.092 0.768 0.145 1.658 0.145 2.56s-0.053 1.792-0.155 2.666l0.010-0.106-12.8 71.68 53.76 50.88c4.463 3.843 7.363 9.394 7.678 15.627l0.002 0.053zM138.24 771.2l49.92 7.36 21.76 42.56 21.76-42.56 49.6-7.36-35.84-35.2 8.32-47.36-43.84 22.4-43.84-22.4 8.32 47.36zM851.84 482.56c-4.997 5.516-12.188 8.967-20.184 8.967-0.217 0-0.433-0.003-0.648-0.008l0.032 0.001h-437.12c-0.146 0.003-0.319 0.004-0.492 0.004-7.814 0-14.885-3.183-19.987-8.323l-0.002-0.002c-4.902-4.919-7.933-11.705-7.933-19.2s3.031-14.281 7.934-19.201l-0.001 0.001c5.103-5.142 12.174-8.324 19.988-8.324 0.173 0 0.345 0.002 0.518 0.005h438.054c0.183-0.004 0.399-0.007 0.616-0.007 7.996 0 15.187 3.451 20.164 8.944l0.021 0.023c4.752 4.749 7.691 11.311 7.691 18.56s-2.939 13.811-7.691 18.56v0zM950.72 420.8c-5.906 4.978-13.599 8.002-21.999 8.002-0.141 0-0.282-0.001-0.422-0.003h-531.179c-0.227 0.006-0.495 0.009-0.763 0.009-7.974 0-15.3-2.778-21.062-7.419l0.065 0.050c-5.997-4.668-9.818-11.888-9.818-20s3.821-15.332 9.761-19.958l0.057-0.042c5.697-4.591 13.023-7.369 20.997-7.369 0.268 0 0.536 0.003 0.803 0.009l-0.040-0.001h530.88c0.119-0.001 0.26-0.002 0.401-0.002 8.4 0 16.094 3.025 22.051 8.045l-0.052-0.042c5.591 4.594 9.162 11.468 9.28 19.18v0.020c-0.025 7.785-3.478 14.758-8.928 19.493l-0.032 0.027zM355.84 475.84c0 7.36-5.12 16.32-19.52 18.56l-74.24 10.56-32 64c-2.979 7.864-10.448 13.353-19.2 13.353s-16.221-5.489-19.153-13.213l-0.047-0.141-32-64-73.92-10.56c-14.4-2.24-19.52-11.2-19.52-18.56 0.305-6.387 3.202-12.043 7.656-15.979l0.024-0.021 53.76-50.56-12.8-72c-0.057-0.718-0.090-1.555-0.090-2.4s0.033-1.682 0.097-2.51l-0.007 0.11c-0.001-0.065-0.001-0.142-0.001-0.219 0-4.482 1.44-8.628 3.882-12l-0.041 0.060c3.95-4.496 9.712-7.319 16.133-7.319 4.354 0 8.406 1.298 11.788 3.528l-0.080-0.050 65.92 33.6 65.6-33.6c3.676-2.146 8.079-3.443 12.778-3.52h0.022c0.205-0.008 0.445-0.013 0.686-0.013 10.074 0 18.24 8.166 18.24 18.24 0 0.455-0.017 0.906-0.049 1.353l0.004-0.060c0.092 0.768 0.145 1.658 0.145 2.56s-0.053 1.792-0.155 2.666l0.010-0.106-15.36 71.68 53.76 50.88c4.493 3.821 7.403 9.385 7.678 15.634l0.002 0.046zM138.24 458.24l49.92 7.040 21.76 42.88 21.76-42.88 49.6-7.040-35.84-33.92 8.32-47.68-43.84 22.4-43.84-22.4 8.32 47.68zM851.84 169.28c-4.835 5.516-11.895 8.98-19.765 8.98-0.364 0-0.726-0.007-1.087-0.022l0.052 0.002h-437.12c-0.278 0.010-0.605 0.016-0.934 0.016-7.619 0-14.523-3.060-19.55-8.019l0.003 0.003c-4.902-4.919-7.933-11.705-7.933-19.2s3.031-14.281 7.934-19.201l-0.001 0.001c5.103-5.142 12.174-8.324 19.988-8.324 0.173 0 0.345 0.002 0.518 0.005h438.054c0.183-0.004 0.399-0.007 0.616-0.007 7.996 0 15.187 3.451 20.164 8.944l0.021 0.023c4.692 4.785 7.61 11.325 7.68 18.546v0.014c-0.279 7.274-3.551 13.732-8.613 18.217l-0.027 0.023zM950.72 107.52c-5.663 5.167-13.23 8.332-21.536 8.332-0.304 0-0.606-0.004-0.908-0.013l0.044 0.001h-531.2c-0.227 0.006-0.495 0.009-0.763 0.009-7.974 0-15.3-2.778-21.062-7.419l0.065 0.050c-6.004-4.741-9.844-11.995-9.92-20.147v-0.013c0-0.024 0-0.052 0-0.080 0-8.062 3.871-15.219 9.857-19.714l0.063-0.046c5.559-4.782 12.846-7.694 20.814-7.694 0.333 0 0.664 0.005 0.994 0.015l-0.048-0.001h530.88c0.257-0.007 0.56-0.012 0.864-0.012 8.306 0 15.873 3.165 21.561 8.354l-0.025-0.023c5.628 4.554 9.197 11.46 9.197 19.2s-3.569 14.646-9.151 19.164l-0.046 0.036zM355.84 162.56c0 7.68-5.12 16.64-19.52 18.88l-74.24 10.56-32 64c-3.304 7.379-10.583 12.426-19.040 12.426s-15.736-5.048-18.987-12.295l-0.053-0.132-32-64-73.92-10.56c-14.4-2.24-19.52-11.2-19.52-18.88 0.395-6.268 3.274-11.795 7.655-15.659l0.025-0.021 51.2-50.88-12.8-72c-0.057-0.718-0.090-1.555-0.090-2.4s0.033-1.682 0.097-2.51l-0.007 0.11c-0.001-0.065-0.001-0.142-0.001-0.219 0-4.482 1.44-8.628 3.882-12l-0.041 0.060c4.009-4.563 9.856-7.427 16.373-7.427 4.247 0 8.209 1.216 11.558 3.32l-0.091-0.053 65.92 32 65.6-32c3.499-1.816 7.64-2.88 12.029-2.88 0.046 0 0.092 0 0.138 0h-0.007c0.205-0.008 0.445-0.013 0.686-0.013 10.074 0 18.24 8.166 18.24 18.24 0 0.455-0.017 0.906-0.049 1.353l0.004-0.060c0.081 0.768 0.127 1.658 0.127 2.56s-0.046 1.792-0.136 2.67l0.009-0.11-12.48 71.36 53.76 50.88c4.555 3.773 7.489 9.366 7.679 15.648l0.001 0.032zM138.24 145.28l49.92 7.040 21.76 42.88 21.76-42.88 49.6-7.040-35.84-33.92 8.32-47.36-43.84 22.4-43.84-22.4 8.32 47.68z" />
<glyph unicode="&#xe90e;" glyph-name="icon" data-tags="icon" d="M378.56 461.44c45.051 3.641 80.232 41.099 80.232 86.773 0 2.233-0.084 4.447-0.249 6.638l0.018-0.292c0.163 1.995 0.256 4.319 0.256 6.665 0 45.683-35.194 83.146-79.948 86.755l-0.308 0.020c-45.102-3.971-80.211-41.566-80.211-87.361 0-2.139 0.077-4.26 0.227-6.361l-0.016 0.282c-0.134-1.811-0.21-3.923-0.21-6.053 0-45.731 35.138-83.255 79.889-87.045l0.321-0.022zM512 960c-282.77 0-512-229.23-512-512s229.23-512 512-512c282.77 0 512 229.23 512 512v0c0 282.77-229.23 512-512 512v0zM512 42.56c-223.918 0-405.44 181.522-405.44 405.44s181.522 405.44 405.44 405.44c223.918 0 405.44-181.522 405.44-405.44v0c0-223.918-181.522-405.44-405.44-405.44v0zM743.36 376.64c-5.298 2.739-11.564 4.344-18.206 4.344-15.306 0-28.62-8.528-35.449-21.092l-0.105-0.212c-1.6-3.52-46.080-85.12-177.6-85.12s-175.36 80.96-177.6 85.12c-6.76 13.191-20.264 22.062-35.84 22.062-22.17 0-40.142-17.972-40.142-40.142 0-6.594 1.59-12.817 4.407-18.306l-0.105 0.226c2.88-5.44 66.56-128 249.28-128s246.4 123.52 248.96 128c2.699 5.193 4.282 11.338 4.282 17.853 0 15.37-8.81 28.683-21.656 35.163l-0.226 0.103zM578.56 514.56h133.44c22.091 0 40 17.909 40 40s-17.909 40-40 40v0h-133.44c-22.091 0-40-17.909-40-40s17.909-40 40-40v0z" />
<glyph unicode="&#xe90f;" glyph-name="image" data-tags="image" d="M384 640c0-53.019-42.981-96-96-96s-96 42.981-96 96c0 53.019 42.981 96 96 96s96-42.981 96-96zM992 896h-960c-17.673 0-32-14.327-32-32v0-832c0-17.673 14.327-32 32-32v0h960c17.673 0 32 14.327 32 32v0 832c0 17.673-14.327 32-32 32v0zM960 96c0-17.673-14.327-32-32-32v0h-832c-17.673 0-32 14.327-32 32v0 704c0 17.673 14.327 32 32 32v0h832c17.673 0 32-14.327 32-32v0zM640 576l-192-320-127.040 92.8-0.96 3.2-7.68 2.88 6.080-4.16-190.4-158.72v-64h768v64l-96 288-160 96z" />
<glyph unicode="&#xe910;" glyph-name="link" data-tags="link" d="M951.040 859.52c-46.355 42.042-108.172 67.778-176 67.778s-129.645-25.735-176.22-67.974l0.22 0.196-198.080-184.32c-45.128-41.128-73.336-100.15-73.336-165.76s28.208-124.632 73.158-165.6l0.178-0.16c9.75-8.929 22.796-14.401 37.12-14.401 0.113 0 0.225 0 0.338 0.001h-0.017c0.117-0.001 0.254-0.001 0.392-0.001 14.403 0 27.528 5.469 37.414 14.443l-0.046-0.041c9.567 8.803 15.54 21.384 15.54 35.36s-5.973 26.557-15.506 35.329l-0.034 0.031c-25.996 23.52-42.26 57.381-42.26 95.040s16.263 71.52 42.15 94.942l0.11 0.098 195.84 184.32c26.595 24.384 62.193 39.326 101.28 39.326s74.685-14.943 101.391-39.427l-0.111 0.101c25.996-23.52 42.26-57.381 42.26-95.040s-16.263-71.52-42.15-94.942l-0.11-0.098-89.92-84.16c-9.567-8.803-15.54-21.384-15.54-35.36s5.973-26.557 15.506-35.329l0.034-0.031c9.92-9.081 23.19-14.646 37.76-14.646s27.84 5.564 37.802 14.684l-0.042-0.038 89.92 84.16c45.413 41.153 73.817 100.357 73.817 166.196 0 65.383-28.013 124.223-72.691 165.173l-0.167 0.151zM547.84 552.32c-9.567-8.803-15.54-21.384-15.54-35.36s5.973-26.557 15.506-35.329l0.034-0.031c25.996-23.52 42.26-57.381 42.26-95.040s-16.263-71.52-42.15-94.942l-0.11-0.098-195.84-184.32c-26.595-24.384-62.193-39.326-101.28-39.326s-74.685 14.943-101.391 39.427l0.111-0.101c-25.996 23.52-42.26 57.381-42.26 95.040s16.263 71.52 42.15 94.942l0.11 0.098 89.92 84.16c9.567 8.803 15.54 21.384 15.54 35.36s-5.973 26.557-15.506 35.329l-0.034 0.031c-9.92 9.081-23.19 14.646-37.76 14.646s-27.84-5.564-37.802-14.684l0.042 0.038-90.88-84.16c-45.128-41.128-73.336-100.15-73.336-165.76s28.208-124.632 73.158-165.6l0.178-0.16c45.833-42.448 107.394-68.487 175.037-68.487 0.676 0 1.352 0.003 2.027 0.008l-0.104-0.001c0.514-0.004 1.122-0.006 1.73-0.006 67.602 0 129.122 26.041 175.076 68.638l-0.166-0.152 196.48 184.32c45.128 41.128 73.336 100.15 73.336 165.76s-28.208 124.632-73.158 165.6l-0.178 0.16c-9.87 9.060-23.087 14.613-37.6 14.613s-27.73-5.553-37.641-14.65l0.041 0.037z" />
<glyph unicode="&#xe911;" glyph-name="logo" data-tags="logo" d="M800 533.12c-12.678 6.958-27.781 11.051-43.84 11.051s-31.162-4.093-44.322-11.293l0.482 0.242c-12.894-7.433-23.031-18.394-29.255-31.566l-0.185-0.434c-6.873-13.605-10.899-29.657-10.899-46.648 0-0.7 0.007-1.399 0.020-2.096l-0.002 0.105v-10.24c-0.016-0.668-0.025-1.455-0.025-2.244 0-16.438 3.91-31.963 10.851-45.696l-0.266 0.58c6.681-13.519 16.877-24.436 29.409-31.809l0.351-0.191c12.66-7.039 27.766-11.183 43.84-11.183s31.18 4.144 44.309 11.422l-0.469-0.238c12.779 7.577 22.874 18.494 29.246 31.56l0.194 0.44c6.477 13.559 10.259 29.469 10.259 46.263 0 0.723-0.007 1.445-0.021 2.164l0.002-0.108v10.24c0 0.113 0.001 0.247 0.001 0.381 0 17.286-3.894 33.663-10.852 48.301l0.292-0.682c-6.627 13.282-16.577 24.055-28.784 31.49l-0.336 0.19zM804.8 443.2c0.118-1.606 0.185-3.48 0.185-5.37 0-15.856-4.726-30.607-12.846-42.923l0.181 0.293c-8.686-10.279-21.586-16.762-36-16.762s-27.314 6.483-35.943 16.692l-0.057 0.070c-8.3 12.084-13.255 27.029-13.255 43.131 0 1.6 0.049 3.19 0.145 4.766l-0.011-0.216v10.56c-0.044 0.983-0.070 2.136-0.070 3.295 0 16.19 4.928 31.23 13.365 43.7l-0.176-0.275c8.682 10.168 21.513 16.573 35.84 16.573s27.158-6.405 35.786-16.508l0.054-0.065c8.133-11.869 12.989-26.54 12.989-42.345 0-1.877-0.068-3.739-0.203-5.582l0.014 0.247zM220.48 541.44h-35.2v-186.88h127.040v25.92h-91.84v160.96zM437.44 533.12c-12.678 6.958-27.781 11.051-43.84 11.051s-31.162-4.093-44.322-11.293l0.482 0.242c-12.919-7.518-23.129-18.448-29.567-31.565l-0.193-0.435c-6.477-13.559-10.259-29.469-10.259-46.263 0-0.723 0.007-1.445 0.021-2.164l-0.002 0.108v-10.24c-0.031-0.943-0.049-2.052-0.049-3.164 0-16.203 3.799-31.519 10.555-45.105l-0.265 0.59c6.681-13.519 16.877-24.436 29.409-31.809l0.351-0.191c12.66-7.039 27.766-11.183 43.84-11.183s31.18 4.144 44.309 11.422l-0.469-0.238c12.779 7.577 22.874 18.494 29.246 31.56l0.194 0.44c6.477 13.559 10.259 29.469 10.259 46.263 0 0.723-0.007 1.445-0.021 2.164l0.002-0.108v10.24c0 0.113 0.001 0.247 0.001 0.381 0 17.286-3.894 33.663-10.852 48.301l0.292-0.682c-6.627 13.282-16.577 24.055-28.784 31.49l-0.336 0.19zM442.24 443.2c0.118-1.606 0.185-3.48 0.185-5.37 0-15.856-4.726-30.607-12.846-42.923l0.181 0.293c-8.686-10.279-21.586-16.762-36-16.762s-27.314 6.483-35.943 16.692l-0.057 0.070c-8.3 12.084-13.255 27.029-13.255 43.131 0 1.6 0.049 3.19 0.145 4.766l-0.011-0.216v10.56c-0.044 0.983-0.070 2.136-0.070 3.295 0 16.19 4.928 31.23 13.365 43.7l-0.176-0.275c7.856 10.189 20.066 16.689 33.794 16.689 0.72 0 1.435-0.018 2.146-0.053l-0.1 0.004c0.657 0.036 1.425 0.057 2.198 0.057 13.684 0 25.848-6.507 33.567-16.596l0.075-0.102c8.133-11.869 12.989-26.54 12.989-42.345 0-1.877-0.068-3.739-0.203-5.582l0.014 0.247zM576 425.92h41.6v-36.8c-8.963-7.136-20.449-11.449-32.943-11.449-1.809 0-3.597 0.090-5.359 0.267l0.222-0.018c-0.86-0.057-1.864-0.090-2.876-0.090-14.262 0-27.010 6.479-35.463 16.654l-0.061 0.076c-8.869 11.797-14.204 26.691-14.204 42.831 0 1.481 0.045 2.951 0.133 4.409l-0.010-0.2v14.4c-0.057 1.101-0.089 2.39-0.089 3.687 0 15.807 4.816 30.49 13.060 42.661l-0.171-0.268c7.924 9.83 19.965 16.066 33.462 16.066 0.837 0 1.668-0.024 2.492-0.071l-0.114 0.005c1.319 0.161 2.845 0.252 4.393 0.252 19.718 0 35.965-14.862 38.15-33.995l0.016-0.177h34.56c-1.574 18.047-10.422 33.763-23.559 44.385l-0.121 0.095c-13.757 9.664-30.852 15.445-49.298 15.445-1.344 0-2.681-0.031-4.011-0.091l0.189 0.007c-1.291 0.075-2.802 0.117-4.322 0.117-22.231 0-42.335-9.104-56.788-23.787l-0.010-0.010c-13.83-16.274-22.241-37.528-22.241-60.746 0-1.933 0.058-3.852 0.173-5.755l-0.013 0.262v-14.72c0-0.017 0-0.037 0-0.057 0-16.813 4.143-32.659 11.463-46.571l-0.263 0.548c6.57-13.681 16.93-24.659 29.719-31.815l0.361-0.185c12.581-6.664 27.503-10.577 43.339-10.577 0.626 0 1.251 0.006 1.874 0.018l-0.093-0.001c0.564-0.008 1.23-0.013 1.898-0.013 15.109 0 29.643 2.464 43.222 7.012l-0.96-0.279c12.181 3.969 22.465 10.948 30.327 20.073l0.073 0.087v72.96h-77.76zM1004.48 416l-17.92 24.32c-2.074 2.781-3.321 6.285-3.321 10.080s1.247 7.299 3.353 10.125l-0.032-0.045 17.6 24.64c11.551 15.659 18.487 35.338 18.487 56.636 0 8.182-1.024 16.125-2.95 23.707l0.143-0.664c-6.87 28.020-25.091 50.848-49.389 63.743l-0.531 0.257-27.2 14.4c-5.669 2.824-9.495 8.58-9.495 15.229 0 0.95 0.078 1.882 0.228 2.79l-0.013-0.099 5.12 29.76c0.874 4.914 1.374 10.571 1.374 16.345 0 23.63-8.37 45.306-22.308 62.223l0.134-0.168c-17.728 21.215-43.788 34.955-73.081 36.154l-0.199 0.006h-32c-7.949 0.203-14.618 5.462-16.924 12.671l-0.036 0.129-8.64 28.48c-13.081 41.391-51.075 70.899-95.983 71.040h-0.017c-14.222-0.064-27.742-2.999-40.032-8.255l0.672 0.255-28.16-11.84c-2.085-0.845-4.502-1.335-7.035-1.335-5.397 0-10.273 2.226-13.761 5.811l-0.004 0.004-19.84 25.6c-18.524 20.496-45.204 33.319-74.88 33.319s-56.356-12.824-74.802-33.232l-19.918-22.488c-3.412-3.791-8.336-6.165-13.814-6.165-2.518 0-4.919 0.502-7.109 1.41l0.123-0.045-28.8 11.2c-11.1 4.559-23.984 7.205-37.486 7.205-45.169 0-83.421-29.616-96.397-70.489l-0.196-0.716-8-29.12c-2.386-7.188-8.855-12.362-16.591-12.798l-0.049-0.002h-32c-29.638-3.083-55.078-18.806-71.151-41.607l-0.209-0.313c-13.425-16.385-21.562-37.553-21.562-60.621 0-6.402 0.627-12.657 1.822-18.708l-0.1 0.61 5.76-29.44c0.162-0.889 0.255-1.913 0.255-2.958 0-6.593-3.693-12.324-9.123-15.237l-0.092-0.045-26.88-14.72c-24.387-13.497-42.284-36.204-49.132-63.308l-0.148-0.692c-1.467-6.288-2.308-13.509-2.308-20.926 0-21.947 7.365-42.173 19.757-58.344l-0.169 0.229 17.92-24c2.1-2.827 3.361-6.386 3.361-10.24s-1.261-7.413-3.394-10.286l0.033 0.046-17.6-24.32c-11.507-15.815-18.408-35.626-18.408-57.048 0-37.478 21.124-70.023 52.116-86.376l0.532-0.256 27.2-14.4c5.685-2.908 9.509-8.725 9.509-15.434 0-0.991-0.083-1.962-0.244-2.908l0.014 0.102-5.12-29.76c-0.923-4.998-1.45-10.749-1.45-16.623 0-23.449 8.407-44.935 22.372-61.607l-0.122 0.15c17.774-21.213 43.782-35.021 73.041-36.471l0.239-0.009h32c7.892-0.136 14.507-5.445 16.609-12.676l0.031-0.124 8.64-28.8c12.992-41.451 51.040-71.008 95.996-71.040h0.004c14.219 0.027 27.744 2.967 40.021 8.253l-0.661-0.253 28.48 11.84c2.085 0.845 4.502 1.335 7.035 1.335 5.397 0 10.273-2.226 13.761-5.811l0.004-0.004 20.48-22.4c18.569-20.405 45.235-33.162 74.88-33.162s56.311 12.757 74.807 33.081l0.073 0.082 20.16 22.72c3.517 3.782 8.52 6.14 14.074 6.14 2.537 0 4.959-0.492 7.175-1.386l-0.129 0.046 28.48-11.2c11.154-4.625 24.108-7.311 37.69-7.311 45.148 0 83.364 29.682 96.197 70.597l0.193 0.714 8.32 29.12c2.306 7.241 8.821 12.457 16.602 12.799l0.038 0.001 32 1.6c29.402 1.859 55.175 15.979 72.494 37.255l0.146 0.185c13.425 16.385 21.562 37.553 21.562 60.621 0 6.402-0.627 12.657-1.822 18.708l0.1-0.61-5.76 29.44c-0.162 0.889-0.255 1.913-0.255 2.958 0 6.593 3.693 12.324 9.123 15.237l0.092 0.045 26.88 14.72c24.387 13.497 42.284 36.204 49.132 63.308l0.148 0.692c1.095 5.442 1.722 11.697 1.722 18.099 0 23.069-8.137 44.237-21.697 60.791l0.135-0.17zM856.32 224l5.44-29.44c0.239-1.026 0.376-2.205 0.376-3.415 0-3.972-1.477-7.599-3.911-10.362l0.015 0.017c-3.198-3.975-8.002-6.546-13.412-6.719l-0.028-0.001-30.4-1.92c-43.183-2.248-78.94-31.614-90.7-71.294l-0.18-0.706-8-29.12c-2.748-7.459-9.794-12.683-18.060-12.683-2.361 0-4.623 0.426-6.713 1.206l0.133-0.043-28.48 11.52c-11.19 4.605-24.179 7.279-37.794 7.279-29.902 0-56.792-12.898-75.41-33.433l-0.076-0.086-20.16-22.72c-3.492-3.585-8.366-5.81-13.76-5.81s-10.268 2.224-13.756 5.805l-0.004 0.004-20.48 22.4c-18.499 19.719-44.72 32.003-73.811 32.003-0.263 0-0.526-0.001-0.789-0.003h0.040c-0.115 0-0.251 0.001-0.386 0.001-14.055 0-27.451-2.823-39.651-7.932l0.677 0.252-28.48-11.84c-1.986-0.761-4.284-1.201-6.684-1.201-8.16 0-15.132 5.091-17.911 12.27l-0.045 0.131-8.32 28.8c-12.57 40.084-48.611 68.975-91.644 70.714l-0.196 0.006h-32c-5.438 0.174-10.242 2.745-13.413 6.685l-0.027 0.035c-2.427 2.953-3.898 6.771-3.898 10.933 0 2.407 0.492 4.698 1.381 6.78l-0.043-0.113 5.44 29.76c0.854 4.85 1.343 10.434 1.343 16.133 0 37.69-21.363 70.389-52.641 86.651l-0.541 0.256-26.88 14.4c-4.578 2.226-7.91 6.4-8.942 11.415l-0.018 0.105c-0.351 1.224-0.552 2.629-0.552 4.082 0 3.681 1.295 7.060 3.454 9.706l-0.022-0.028 17.6 24.64c11.914 15.814 19.080 35.79 19.080 57.44s-7.167 41.626-19.257 57.685l0.177-0.245-18.24 24.32c-2.091 2.788-3.349 6.307-3.349 10.119 0 1.406 0.171 2.772 0.493 4.078l-0.024-0.116c1.267 5.023 4.525 9.118 8.866 11.473l0.094 0.047 26.88 14.4c30.39 17.099 50.581 49.144 50.581 85.905 0 6.284-0.59 12.43-1.718 18.386l0.096-0.612-5.44 29.44c-0.239 1.026-0.376 2.205-0.376 3.415 0 3.972 1.477 7.599 3.911 10.362l-0.015-0.017c3.271 3.882 8.032 6.417 13.391 6.718l0.049 0.002 32 1.92c42.262 2.884 77.117 31.583 89.091 70.33l0.189 0.71 8 29.12c2.616 7.496 9.624 12.777 17.866 12.777 2.436 0 4.764-0.461 6.902-1.301l-0.128 0.044 28.48-11.2c11.234-4.681 24.284-7.399 37.97-7.399 29.871 0 56.717 12.952 75.228 33.547l0.082 0.093 20.16 22.4c3.492 3.585 8.366 5.81 13.76 5.81s10.268-2.224 13.756-5.805l0.004-0.004 20.48-22.4c18.875-19.878 45.497-32.245 75.006-32.245 14.028 0 27.403 2.794 39.599 7.857l-0.685-0.252 28.16 11.84c2.015 0.769 4.345 1.215 6.779 1.215 8.224 0 15.26-5.086 18.135-12.283l0.046-0.132 8.32-29.12c12.57-40.084 48.611-68.975 91.644-70.714l0.196-0.006h32c5.458-0.241 10.31-2.653 13.747-6.386l0.013-0.014c2.365-2.892 3.799-6.627 3.799-10.697 0-1.083-0.101-2.142-0.295-3.169l0.017 0.106-5.12-29.76c-0.827-4.789-1.3-10.304-1.3-15.93 0-37.655 21.185-70.362 52.287-86.852l0.533-0.258 27.2-14.4c4.489-2.337 7.774-6.46 8.937-11.403l0.023-0.117c0.346-1.255 0.545-2.696 0.545-4.183 0-3.598-1.165-6.925-3.137-9.623l0.032 0.046-17.6-24.64c-11.914-15.814-19.080-35.79-19.080-57.44s7.167-41.626 19.257-57.685l-0.177 0.245 17.28-23.36c2.082-3.057 3.325-6.832 3.325-10.897 0-1.468-0.162-2.898-0.469-4.273l0.024 0.13c-1.142-4.991-4.452-9.036-8.862-11.158l-0.098-0.042-26.56-14.72c-31.397-16.216-52.491-48.432-52.491-85.574 0-7.323 0.82-14.455 2.373-21.309l-0.122 0.643z" />
<glyph unicode="&#xe912;" glyph-name="map" data-tags="map" d="M992 32l-70.4 211.2h-76.8l42.56-204.8h-750.72l42.56 204.8h-76.8l-70.4-211.2c-3.304-7.831-5.224-16.935-5.224-26.487 0-38.527 31.233-69.76 69.76-69.76 2.064 0 4.107 0.090 6.126 0.265l-0.262-0.018h819.2c1.757-0.157 3.8-0.247 5.864-0.247 38.527 0 69.76 31.233 69.76 69.76 0 9.552-1.92 18.656-5.395 26.947l0.171-0.46zM768 704c0 141.385-114.615 256-256 256s-256-114.615-256-256v0c0-244.48 256-512 256-512s256 267.52 256 512zM373.76 700.8c0 76.348 61.892 138.24 138.24 138.24s138.24-61.892 138.24-138.24c0-76.348-61.892-138.24-138.24-138.24v0c-0.095 0-0.208 0-0.32 0-76.171 0-137.92 61.749-137.92 137.92 0 0.113 0 0.225 0 0.338v-0.017z" />
<glyph unicode="&#xe913;" glyph-name="search" data-tags="search" d="M731.2 323.84c6.080 8.96 12.16 17.92 17.92 26.88 11.709 18.301 22.464 39.379 31.137 61.501l0.863 2.499c7.403 19.12 14.038 42.076 18.743 65.727l0.457 2.753c4.64 22.109 7.318 47.529 7.36 73.567v0.033c0.004 0.661 0.006 1.442 0.006 2.224 0 56.217-11.776 109.683-32.996 158.067l0.99-2.531c-42.414 96.548-118.34 171.85-212.718 212.43l-2.642 1.010c-46.116 20.246-99.87 32.028-156.375 32.028-28.703 0-56.696-3.040-83.675-8.816l2.61 0.468c-28.618-6.489-53.405-14.627-77.125-24.778l2.885 1.098c-26.853-10.515-49.935-22.666-71.43-37.008l1.35 0.848c-22.778-16.042-42.713-32.219-61.495-49.624l0.375 0.344c-18.525-18.459-35.179-38.772-49.667-60.645l-0.893-1.435c-13.431-19.937-25.764-42.774-35.82-66.801l-0.98-2.639c-9.508-21.726-17.377-47.151-22.367-73.592l-0.353-2.248c-4.681-23.497-7.36-50.51-7.36-78.15 0-0.201 0-0.401 0-0.602v0.031c-0.001-0.242-0.001-0.529-0.001-0.816 0-56.369 11.773-109.989 32.994-158.533l-0.993 2.55c41.792-96.813 117.185-172.516 211.148-213.7l2.612-1.020c45.703-20.328 99.024-32.165 155.11-32.165 26.983 0 53.326 2.74 78.766 7.956l-2.516-0.431c26.404 5.162 49.36 11.797 71.45 20.191l-2.97-0.991c24.621 9.536 45.699 20.291 65.491 32.887l-1.491-0.887 26.88 17.92 291.52-293.44 96 96zM180.16 704c10.787 15.933 22.37 29.853 35.178 42.538l0.022 0.022c11.308 11.966 23.897 22.521 37.605 31.511l0.795 0.489c13.154 8.878 28.215 16.932 44.091 23.399l1.669 0.601c14.589 6.298 32.093 12.115 50.163 16.487l2.317 0.473c15.232 3.464 32.725 5.449 50.681 5.449 0.745 0 1.489-0.003 2.232-0.010l-0.114 0.001c0.404 0.002 0.883 0.004 1.362 0.004 36.739 0 71.691-7.653 103.348-21.452l-1.669 0.648c33.070-14.335 61.308-33.754 85.117-57.597l0.003-0.003c23.991-23.931 43.437-52.404 56.94-84.022l0.66-1.738c13.551-30.599 21.44-66.288 21.44-103.82 0-0.176 0-0.352-0.001-0.527v0.027c0.004-0.497 0.006-1.085 0.006-1.673 0-36.663-7.775-71.511-21.767-102.983l0.641 1.616c-14.293-33.198-33.719-61.546-57.601-85.441l0.001 0.001c-24.15-23.747-52.412-43.407-83.604-57.8l-1.836-0.76c-30.398-13.58-65.876-21.488-103.2-21.488s-72.802 7.909-104.848 22.142l1.648-0.653c-33.575 14.763-62.299 34.364-86.774 58.292l0.054-0.052c-23.864 23.535-43.2 51.589-56.63 82.784l-0.65 1.696c-13.153 30.539-20.801 66.089-20.801 103.426 0 0.314 0.001 0.629 0.002 0.943v-0.049c-0.001 0.232-0.001 0.507-0.001 0.782 0 18.84 1.747 37.273 5.088 55.144l-0.287-1.846c3.413 18.013 8.509 33.989 15.272 49.054l-0.552-1.374c7.986 17.993 16.004 33.009 24.945 47.392l-0.945-1.632z" />
<glyph unicode="&#xe914;" glyph-name="shortcode" data-tags="shortcode" d="M0 160h152.32v66.88h-70.72v434.56h70.72v66.88h-152.32v-568.32zM662.080 677.44h-71.040l-23.68-118.080h-67.52l24.32 118.080h-68.48l-24.32-118.080h-87.040v-66.88h73.28l-18.24-89.28h-55.040v-66.56h41.6l-24.32-118.080h69.12l24.32 118.080h67.84l-23.68-118.080h68.16l24.32 118.080h88v66.56h-74.24l18.24 89.28h56v66.88h-42.24zM536.32 403.2h-67.84l17.92 89.28h67.52zM871.68 728.32v-66.24h70.72v-435.2h-70.72v-66.88h152.32v568.32h-152.32z" />
<glyph unicode="&#xe915;" glyph-name="social" data-tags="social" d="M1024 493.44c0 0.035 0 0.077 0 0.119 0 15.178-1.867 29.919-5.384 44.008l0.264-1.247c-3.487 13.591-8.645 25.527-15.361 36.399l0.321-0.559c-8.962 14.607-21.441 26.265-36.29 33.998l-0.51 0.242c-13.393 7.257-29.321 11.523-46.246 11.523-0.279 0-0.558-0.001-0.837-0.003h-89.877c21.108 39.551 38.204 85.398 48.922 133.645l0.678 3.635c3.717 13.986 5.851 30.044 5.851 46.599 0 31.985-7.967 62.11-22.026 88.497l0.494-1.016c-13.401 24.692-34.188 43.93-59.366 55.047l-0.794 0.313c-37.76 16.64-72.96 23.040-96 2.56-8.066-7.721-13.844-17.771-16.254-29.069l-0.066-0.371c-6.615-35.688-20.159-67.354-39.247-94.883l0.527 0.803c-26.354-38.755-56.454-72.21-90.493-101.173l-0.707-0.587c-17.172-15.688-35.736-30.901-55.094-45.095l-1.866-1.305c-20.16-14.4-40.96-27.84-62.080-40s-43.52-23.68-65.92-32c-16.64-7.36-32-14.4-50.56-20.8-18.391 22.534-46.166 36.806-77.274 36.806-0.396 0-0.791-0.002-1.186-0.007l0.060 0.001h-148.48c-0.542 0.011-1.18 0.017-1.82 0.017-26.698 0-50.85-10.898-68.251-28.489l-0.008-0.009c-17.964-17.012-29.144-41.032-29.144-67.664 0-0.737 0.009-1.472 0.026-2.205l-0.002 0.109v-439.040c-0.001-0.169-0.002-0.369-0.002-0.568 0-27.005 11.151-51.406 29.099-68.85l0.023-0.022c17.667-17.415 41.94-28.169 68.725-28.169 0.476 0 0.952 0.003 1.427 0.010l-0.072-0.001h148.48c0.498-0.009 1.084-0.015 1.672-0.015 20.578 0 39.643 6.474 55.271 17.497l-0.303-0.203c10.707 7.338 19.652 16.385 26.655 26.842l0.225 0.358c32.077-3.925 61.086-10.662 88.84-20.111l-3.080 0.911c23.838-8.955 43.453-17.894 62.385-27.948l-2.865 1.388c22.555-11.568 49.27-22.433 76.986-31.025l3.654-0.975c39.026-9.888 83.828-15.562 129.955-15.562 8.429 0 16.813 0.189 25.149 0.564l-1.185-0.042c0.372-0.002 0.812-0.004 1.253-0.004 19.814 0 39 2.688 57.214 7.719l-1.506-0.355c19.311 4.98 36.265 12.559 51.55 22.488l-0.67-0.408c14.779 9.137 27.208 20.547 37.191 33.892l0.249 0.348c6.806 9.163 12.355 19.78 16.098 31.215l0.222 0.785c9.771 5.279 18.116 11.787 25.223 19.458l0.057 0.062c10.586 11.531 19.662 24.698 26.76 39.018l0.44 0.982c7.041 13.55 13.069 29.315 17.266 45.811l0.334 1.549c3.82 14.716 6.139 31.666 6.398 49.115l0.002 0.165v3.84c4.331 3.871 8.214 8.059 11.681 12.583l0.159 0.217c6.299 8.007 12.046 17.029 16.861 26.6l0.419 0.92c7.917 14.385 14.31 31.048 18.311 48.622l0.249 1.298c3.586 15.261 5.681 32.805 5.76 50.826v0.054c0.001 0.166 0.001 0.362 0.001 0.558 0 11.705-1.283 23.111-3.715 34.084l0.194-1.042c-1.636 7.236-3.397 13.23-5.478 19.072l0.358-1.152c8.466 12.404 15.346 26.757 19.885 42.116l0.275 1.084c6.294 19.241 9.924 41.384 9.924 64.374 0 0.431-0.001 0.862-0.004 1.292v-0.066zM881.6 264.32c-10.915-1.702-20.457-6.634-27.855-13.774l0.015 0.014c-8.882-8.468-14.404-20.391-14.404-33.604 0-0.224 0.002-0.447 0.005-0.67v0.034c-0.001-0.138-0.002-0.302-0.002-0.465 0-8.35 2.011-16.229 5.576-23.181l-0.133 0.287c1.643-3.172 3.559-5.906 5.787-8.351l-0.027 0.031c0-4.8 0-11.52-3.84-21.44-3.184-14.657-9.194-27.553-17.468-38.664l0.188 0.264-4.16-5.12c-12.479-0.608-23.654-5.74-32.017-13.776l0.017 0.016c-8.884-8.569-14.401-20.577-14.401-33.875 0-0.128 0.001-0.257 0.002-0.385v0.020c0.035-0.508 0.056-1.1 0.056-1.697 0-10.999-6.851-20.398-16.519-24.163l-0.177-0.061c-15.024-7.867-32.82-12.483-51.694-12.483-0.276 0-0.552 0.001-0.828 0.003h0.042c-6.347-0.306-13.786-0.48-21.266-0.48-36.47 0-71.974 4.139-106.066 11.973l3.172-0.614c-24.648 7.601-45.843 16.616-65.879 27.493l1.879-0.933c-18.237 9.423-41.341 19.659-65.032 28.707l-5.048 1.693c-30.262 10.882-65.741 19.412-102.431 24.059l-2.529 0.261v360c21.76 7.36 42.88 15.68 64 24.96 31.095 13.839 56.297 26.882 80.699 41.145l-3.899-2.105c24.96 14.4 49.6 30.080 72.96 46.4 25.436 18.066 47.546 35.707 68.644 54.461l-0.804-0.701c37.988 32.978 71.286 69.731 99.832 110.082l1.288 1.918c17.229 24.363 32.394 52.2 44.164 81.758l0.956 2.722c1.484-1.784 2.861-3.772 4.055-5.878l0.105-0.202c4.502-12.53 7.105-26.987 7.105-42.052 0-9.13-0.956-18.036-2.773-26.624l0.148 0.836c-2.24-25.6-17.28-76.8-80-178.88-3.629-6.824-5.76-14.921-5.76-23.516 0-0.058 0-0.116 0-0.173v0.009c-0.001-0.118-0.002-0.257-0.002-0.397 0-8.408 2.134-16.318 5.889-23.218l-0.127 0.255c4.066-8.182 10.328-14.752 18.019-19.085l0.221-0.115c7.2-4.028 15.799-6.4 24.952-6.4 0.003 0 0.006 0 0.009 0h174.080c1.541-3.049 2.761-6.586 3.479-10.303l0.041-0.257c1.223-4.945 1.925-10.621 1.925-16.462 0-0.288-0.002-0.575-0.005-0.862v0.044c-0.175-8.939-1.331-17.522-3.367-25.758l0.167 0.798c-2.063-8.716-4.698-16.292-7.999-23.498l0.319 0.778c-1.331-2.845-2.718-5.258-4.278-7.543l0.118 0.183c-10.953-1.541-20.536-6.508-27.843-13.763l0.003 0.003c-8.89-8.62-14.408-20.674-14.408-34.017 0-0.304 0.003-0.607 0.009-0.909l-0.001 0.045c-0.003-0.193-0.004-0.421-0.004-0.649 0-13.51 5.508-25.733 14.401-34.547l0.004-0.004c5.756-5.558 12.857-9.761 20.765-12.071l0.355-0.089c0.083-1.196 0.13-2.593 0.13-4s-0.047-2.804-0.14-4.188l0.010 0.188c-0.133-10.178-1.526-19.971-4.029-29.31l0.189 0.83c-2.349-10.472-5.32-19.555-9.037-28.243l0.397 1.043c-2.695-5.292-6.006-9.828-9.922-13.762l0.002 0.002zM99.2 520.32h149.44v-438.080h-150.4z" />
<glyph unicode="&#xe916;" glyph-name="spacer" data-tags="spacer" d="M520.32 828.48l1.92-1.92h-3.84l1.92 1.92zM520.32 915.84l-154.56-143.36h118.4v-109.76h-369.6c-0.889 0.055-1.928 0.086-2.975 0.086-27.182 0-49.416-21.181-51.098-47.939l-0.007-0.147c1.689-26.905 23.924-48.086 51.105-48.086 1.046 0 2.086 0.031 3.117 0.093l-0.142-0.007h813.44c0.889-0.055 1.928-0.086 2.975-0.086 27.182 0 49.416 21.181 51.098 47.939l0.007 0.147c-1.689 26.905-23.924 48.086-51.105 48.086-1.046 0-2.086-0.031-3.117-0.093l0.142 0.007h-371.52v109.76h118.4l-154.56 143.36zM928 329.28h-813.44c-1.666 0.204-3.596 0.32-5.552 0.32-26.686 0-48.32-21.634-48.32-48.32s21.634-48.32 48.32-48.32c1.956 0 3.885 0.116 5.781 0.342l-0.229-0.022h369.6v-108.8h-119.68l155.84-135.68 156.16 135.68h-120v108.8h371.52c1.666-0.204 3.596-0.32 5.552-0.32 26.686 0 48.32 21.634 48.32 48.32s-21.634 48.32-48.32 48.32c-1.956 0-3.885-0.116-5.781-0.342l0.229 0.022z" />
<glyph unicode="&#xe917;" glyph-name="text" data-tags="text" d="M872 416h-720c-26.51 0-48-21.49-48-48s21.49-48 48-48v0h720c26.51 0 48 21.49 48 48s-21.49 48-48 48v0zM872 576h-720c-26.51 0-48-21.49-48-48s21.49-48 48-48v0h720c26.51 0 48 21.49 48 48s-21.49 48-48 48v0zM872 736h-720c-26.51 0-48-21.49-48-48s21.49-48 48-48v0h720c26.51 0 48 21.49 48 48s-21.49 48-48 48v0zM706.24 256h-564.48c-21.568-2.983-37.997-21.297-37.997-43.449 0-1.603 0.086-3.186 0.254-4.744l-0.017 0.193c-0.151-1.365-0.237-2.948-0.237-4.551 0-22.152 16.429-40.466 37.767-43.423l0.23-0.026h564.48c21.568 2.983 37.997 21.297 37.997 43.449 0 1.603-0.086 3.186-0.254 4.744l0.017-0.193c0.151 1.365 0.237 2.948 0.237 4.551 0 22.152-16.429 40.466-37.767 43.423l-0.23 0.026z" />
<glyph unicode="&#xe918;" glyph-name="vertical-menu" data-tags="vertical-menu" d="M752 476.8h-480c-26.51 0-48 21.49-48 48s21.49 48 48 48v0h480c26.51 0 48-21.49 48-48s-21.49-48-48-48v0zM272 540.8c-8.837 0-16-7.163-16-16v0c0-8.837 7.163-16 16-16v0h480c8.837 0 16 7.163 16 16v0c0 8.837-7.163 16-16 16v0zM912 448h-800c-44.183 0-80-35.817-80-80s35.817-80 80-80v0h800c44.183 0 80 35.817 80 80s-35.817 80-80 80v0zM752 604.8h-480c-26.51 0-48 21.49-48 48s21.49 48 48 48v0h480c26.51 0 48-21.49 48-48s-21.49-48-48-48v0zM272 668.8c-8.837 0-16-7.163-16-16v0c0-8.837 7.163-16 16-16v0h480c8.837 0 16 7.163 16 16v0c0 8.837-7.163 16-16 16v0zM752 732.8h-480c-26.51 0-48 21.49-48 48s21.49 48 48 48v0h480c26.51 0 48-21.49 48-48s-21.49-48-48-48v0zM272 796.8c-8.837 0-16-7.163-16-16v0c0-8.837 7.163-16 16-16v0h480c8.837 0 16 7.163 16 16v0c0 8.837-7.163 16-16 16v0zM752 156.8h-480c-26.51 0-48 21.49-48 48s21.49 48 48 48v0h480c26.51 0 48-21.49 48-48s-21.49-48-48-48v0zM272 220.8c-8.837 0-16-7.163-16-16v0c0-8.837 7.163-16 16-16v0h480c8.837 0 16 7.163 16 16v0c0 8.837-7.163 16-16 16v0zM752 28.8h-480c-26.51 0-48 21.49-48 48s21.49 48 48 48v0h480c26.51 0 48-21.49 48-48s-21.49-48-48-48v0zM272 92.8c-8.837 0-16-7.163-16-16v0c0-8.837 7.163-16 16-16v0h480c8.837 0 16 7.163 16 16v0c0 8.837-7.163 16-16 16v0z" />
<glyph unicode="&#xe919;" glyph-name="video" data-tags="video" d="M960 556.48v-216.96l-151.68 108.48 151.68 108.48zM1024 680.64l-325.76-232.64 325.76-232.64v465.28zM608 672v-448h-512v448h512zM610.88 768h-517.76c-51.429 0-93.12-41.691-93.12-93.12v0-453.76c0-51.429 41.691-93.12 93.12-93.12v0h517.76c51.429 0 93.12 41.691 93.12 93.12v0 453.76c0 51.429-41.691 93.12-93.12 93.12v0z" />
<glyph unicode="&#xe91a;" glyph-name="widgets" data-tags="widgets" d="M723.2 960l300.8-300.8-300.8-298.24h231.36v-424.96h-425.28v424.96h193.92l-298.24 298.24v-193.92h-424.96v425.28h424.96v-231.36zM0-64v424.96h424.96v-424.96z" />
<glyph unicode="&#xe91b;" glyph-name="accordion" data-tags="accordion_1" d="M16 960v-1024h992v1024zM966.72-22.080h-909.44v125.12h909.44zM966.72 144.96h-909.44v438.72h909.44zM966.72 624.96h-909.44v126.080h909.44zM966.72 792.32h-909.44v125.76h909.44zM98.56 823.68h10.88v26.24h26.56v11.2h-26.56v26.24h-10.88v-26.24h-26.56v-11.2h26.56v-26.24zM98.56 656.32h10.88v26.56h26.56v11.2h-26.56v26.24h-10.88v-26.24h-26.56v-11.2h26.56v-26.56zM98.56 8.64h10.88v26.24h26.56v11.2h-26.56v26.56h-10.88v-26.56h-26.56v-11.2h26.56v-26.24zM72 553.28h64v-20.8h-64v20.8z" />
<glyph unicode="&#xe91c;" glyph-name="pricing-table" data-tags="pricing table" d="M1024 759.36h-308.8v200.64h-406.4v-200.64h-308.8v-622.72h308.8v-200.64h406.4v200.64h308.8zM297.6 200.64h-233.6v494.72h233.6zM651.2 0h-278.4v896h278.4zM960 200.64h-233.6v494.72h233.6zM466.56 388.48c-7.458 11.251-12.405 24.774-13.735 39.343l-0.025 0.337-33.92-6.4c0.775-16.42 5.673-31.548 13.672-44.566l-0.232 0.406c6.722-11.195 16.038-20.204 27.15-26.372l0.37-0.188c11.936-5.871 25.836-9.861 40.508-11.168l0.452-0.032v-33.92h19.84v34.24c44.682 2.454 79.984 39.285 79.984 84.36 0 10.378-1.871 20.319-5.295 29.504l0.191-0.584c-3.625 9.23-8.835 17.112-15.364 23.684l0.004-0.004c-7.222 6.849-15.703 12.457-25.047 16.431l-0.553 0.209c-9.368 3.691-20.718 7.108-32.397 9.643l-1.523 0.277v96c10.348-1.735 19.289-6.804 25.888-14.044l0.032-0.036c6.815-8.31 11.336-18.739 12.461-30.166l0.019-0.234 34.88 5.12c-2.156 20.346-11.967 38.061-26.456 50.473l-0.104 0.087c-12.845 9.987-28.96 16.339-46.512 17.271l-0.208 0.009v16h-19.84v-16c-19.224-0.832-36.7-7.685-50.752-18.705l0.192 0.145c-15.738-13.577-25.64-33.546-25.64-55.828 0-0.848 0.014-1.693 0.043-2.534l-0.003 0.122c-0.007-0.387-0.011-0.843-0.011-1.3 0-12.754 3.202-24.76 8.847-35.258l-0.195 0.398c6.042-10.462 14.498-18.918 24.638-24.788l0.322-0.172c12.269-7.158 26.513-12.698 41.637-15.84l0.923-0.16v-107.52c-14.392 2.111-26.566 10.181-34.126 21.578l-0.114 0.182zM520.64 471.040c14.295-3.421 26.641-10.362 36.505-19.863l-0.025 0.023c5.637-7.521 9.027-17.009 9.027-27.288 0-0.869-0.024-1.733-0.072-2.591l0.005 0.119c0.017-0.496 0.026-1.079 0.026-1.665 0-13.217-4.856-25.3-12.882-34.561l0.056 0.066c-8.021-9.12-19.166-15.324-31.747-16.934l-0.253-0.026zM468.16 526.72c-5.996 7.397-9.626 16.923-9.626 27.298 0 0.528 0.009 1.054 0.028 1.578l-0.002-0.076c-0.034 0.653-0.053 1.417-0.053 2.187 0 11.451 4.266 21.906 11.295 29.862l-0.042-0.048c8.255 8.526 19.352 14.255 31.76 15.658l0.24 0.022v-93.44c-13.172 2.302-24.653 8.345-33.62 16.979l0.020-0.019zM432 264.32h160v-32h-160v32zM432 200.32h160v-32h-160v32zM158.080 439.68c-4.067 5.958-6.727 13.175-7.35 20.966l-0.010 0.154-17.92-3.52c0.532-8.674 3.079-16.651 7.175-23.607l-0.135 0.247c3.578-5.768 8.438-10.424 14.203-13.659l0.197-0.101c6.336-3.134 13.711-5.294 21.496-6.059l0.264-0.021v-17.92h10.56v18.24c0.531-0.024 1.154-0.038 1.781-0.038 11.921 0 22.661 5.053 30.197 13.134l0.023 0.024c7.371 7.642 11.912 18.056 11.912 29.53 0 0.869-0.026 1.732-0.077 2.588l0.006-0.118c0.002 0.138 0.003 0.301 0.003 0.464 0 5.477-1.058 10.707-2.982 15.496l0.099-0.28c-1.889 4.858-4.603 9.011-8.006 12.486l0.006-0.006c-3.747 3.744-8.211 6.771-13.168 8.859l-0.272 0.101c-4.902 1.967-10.888 3.836-17.043 5.268l-0.877 0.172v51.2c5.457-0.978 10.179-3.61 13.751-7.35l0.009-0.010c3.421-4.435 5.722-9.898 6.387-15.855l0.013-0.145 15.68 1.28c-1.215 10.791-6.397 20.184-14.030 26.838l-0.050 0.042c-6.783 5.225-15.288 8.525-24.543 8.956l-0.097 0.004v8.96h-9.28v-8.64c-10.066-0.521-19.218-4.047-26.682-9.688l0.122 0.088c-8.297-7.254-13.508-17.859-13.508-29.68 0-0.816 0.025-1.626 0.074-2.43l-0.005 0.11c-0.019-0.438-0.029-0.952-0.029-1.468 0-6.5 1.671-12.609 4.606-17.923l-0.097 0.191c3.038-5.601 7.519-10.082 12.952-13.036l0.168-0.084c6.436-3.991 13.949-6.995 21.975-8.57l0.425-0.070v-56.64c-7.575 1.068-13.975 5.36-17.859 11.419l-0.061 0.101zM186.56 483.2c7.588-1.642 14.13-5.372 19.193-10.553l0.007-0.007c3.012-3.894 4.828-8.845 4.828-14.221 0-0.401-0.010-0.799-0.030-1.194l0.002 0.056c0.010-0.276 0.015-0.6 0.015-0.925 0-6.992-2.548-13.389-6.767-18.313l0.032 0.038c-4.324-4.894-10.358-8.19-17.158-8.949l-0.122-0.011zM160 512c-3.195 4.114-5.122 9.352-5.122 15.039 0 0.113 0.001 0.225 0.002 0.338v-0.017c-0.035 0.491-0.055 1.064-0.055 1.642 0 5.682 1.949 10.91 5.215 15.050l-0.039-0.052c4.247 4.359 9.868 7.36 16.164 8.301l0.156 0.019v-49.28c-6.383 1.623-11.892 4.744-16.335 8.974l0.015-0.014zM139.84 374.080h84.48v-16.96h-84.48v16.96zM139.84 340.48h84.48v-16.96h-84.48v16.96zM830.080 439.68c-4.067 5.958-6.727 13.175-7.35 20.966l-0.010 0.154-17.92-3.52c0.532-8.674 3.079-16.651 7.175-23.607l-0.135 0.247c3.578-5.768 8.438-10.424 14.203-13.659l0.197-0.101c6.336-3.134 13.711-5.294 21.496-6.059l0.264-0.021v-17.92h10.56v18.24c0.531-0.024 1.154-0.038 1.781-0.038 11.921 0 22.661 5.053 30.197 13.134l0.023 0.024c7.371 7.642 11.912 18.056 11.912 29.53 0 0.869-0.026 1.732-0.077 2.588l0.006-0.118c0.002 0.138 0.003 0.301 0.003 0.464 0 5.477-1.058 10.707-2.982 15.496l0.099-0.28c-1.889 4.858-4.603 9.011-8.006 12.486l0.006-0.006c-3.747 3.744-8.211 6.771-13.168 8.859l-0.272 0.101c-4.902 1.967-10.888 3.836-17.043 5.268l-0.877 0.172v51.2c5.457-0.978 10.179-3.61 13.751-7.35l0.009-0.010c3.421-4.435 5.722-9.898 6.387-15.855l0.013-0.145 15.68 1.28c-1.215 10.791-6.397 20.184-14.030 26.838l-0.050 0.042c-6.783 5.225-15.288 8.525-24.543 8.956l-0.097 0.004v8.96h-9.28v-8.64c-10.066-0.521-19.218-4.047-26.682-9.688l0.122 0.088c-8.297-7.254-13.508-17.859-13.508-29.68 0-0.816 0.025-1.626 0.074-2.43l-0.005 0.11c-0.019-0.438-0.029-0.952-0.029-1.468 0-6.5 1.671-12.609 4.606-17.923l-0.097 0.191c3.038-5.601 7.519-10.082 12.952-13.036l0.168-0.084c6.436-3.991 13.949-6.995 21.975-8.57l0.425-0.070v-56.64c-7.575 1.068-13.975 5.36-17.859 11.419l-0.061 0.101zM858.56 483.2c7.588-1.642 14.13-5.372 19.193-10.553l0.007-0.007c3.012-3.894 4.828-8.845 4.828-14.221 0-0.401-0.010-0.799-0.030-1.194l0.002 0.056c0.010-0.276 0.015-0.6 0.015-0.925 0-6.992-2.548-13.389-6.767-18.313l0.032 0.038c-4.324-4.894-10.358-8.19-17.158-8.949l-0.122-0.011zM832 512c-3.195 4.114-5.122 9.352-5.122 15.039 0 0.113 0.001 0.225 0.002 0.338v-0.017c-0.035 0.491-0.055 1.064-0.055 1.642 0 5.682 1.949 10.91 5.215 15.050l-0.039-0.052c4.247 4.359 9.868 7.36 16.164 8.301l0.156 0.019v-49.28c-6.383 1.623-11.892 4.744-16.335 8.974l0.015-0.014zM811.84 374.080h84.48v-16.96h-84.48v16.96zM811.84 340.48h84.48v-16.96h-84.48v16.96z" />
<glyph unicode="&#xe91d;" glyph-name="pricing" data-tags="pricing" d="M507.52 896l440-440c7.617-7.735 12.32-18.358 12.32-30.080s-4.703-22.345-12.326-30.085l-383.995-383.995c-7.731-7.886-18.495-12.774-30.4-12.774s-22.669 4.888-30.393 12.767l-0.007 0.007-438.72 440.32v443.84h443.52zM534.080 960h-534.080v-534.4l458.88-457.6c19.3-19.386 46.009-31.382 75.52-31.382s56.22 11.996 75.516 31.378l384.004 384.004c19.137 19.354 30.959 45.977 30.959 75.36s-11.822 56.006-30.969 75.37l0.010-0.010-459.84 457.28zM160 736c-0.007 0-0.015 0-0.023 0-17.287 0-32.916 7.103-44.126 18.549l-0.010 0.011c-5.856 5.422-10.523 12.039-13.624 19.472l-0.136 0.368c-2.681 6.682-4.236 14.428-4.236 22.538 0 1.077 0.027 2.148 0.082 3.211l-0.006-0.149c0.155 8.703 2.023 16.93 5.28 24.413l-0.16-0.413c3.145 7.946 7.827 14.684 13.723 20.126l0.037 0.034c5.583 5.61 12.152 10.233 19.425 13.588l0.415 0.172c7.101 2.954 15.35 4.67 24 4.67s16.899-1.716 24.425-4.826l-0.425 0.156c7.688-3.527 14.257-8.15 19.837-13.757l0.003-0.003c5.694-5.634 10.331-12.323 13.599-19.75l0.161-0.41c3.301-7.029 5.385-15.227 5.756-23.868l0.004-0.132c0.005-0.283 0.007-0.616 0.007-0.951 0-8.307-1.649-16.229-4.637-23.457l0.149 0.408c-3.462-7.713-8.094-14.291-13.749-19.829l-0.011-0.011c-5.439-5.832-12.051-10.493-19.468-13.621l-0.372-0.139c-7.578-3.655-16.429-5.97-25.773-6.395l-0.147-0.005zM687.68 242.88l-39.040 40c-17.615-14.22-38.089-25.826-60.3-33.783l-1.46-0.457c-9.592-2.766-20.61-4.357-32-4.357s-22.408 1.591-32.844 4.563l0.844-0.206c-26.364 6.907-49.118 19.806-67.6 37.194l0.080-0.074 32 46.72c17.519-15.497 39.168-26.724 63.083-31.836l0.917-0.164c4.18-0.747 8.992-1.174 13.903-1.174 18.914 0 36.349 6.336 50.297 17.001l-0.2-0.147-124.8 128c-19.829-13.205-42.871-23.646-67.539-30.051l-1.581-0.349c-8.719-2.666-18.74-4.2-29.12-4.2s-20.401 1.535-29.85 4.39l0.73-0.189c-20.688 6.388-38.353 17.438-52.45 31.969l-0.030 0.031c-23.15 22.327-37.527 53.616-37.527 88.263 0 3.512 0.148 6.989 0.437 10.426l-0.030-0.449c4.577 31.456 18.359 59.083 38.485 80.732l-0.085-0.092-18.56 18.88 23.36 23.040 18.88-18.88c20.259 17.958 46.062 30.085 74.539 33.535l0.661 0.065c2.791 0.217 6.043 0.34 9.324 0.34 30.798 0 59.055-10.877 81.14-28.999l-0.224 0.179-35.2-44.8c-13.728 11.074-30.787 18.551-49.46 20.756l-0.46 0.044c-0.949 0.042-2.062 0.066-3.18 0.066-16.423 0-31.637-5.177-44.1-13.987l0.24 0.161 112.96-114.88c14.355 9.045 31.259 18.128 48.781 26.086l2.739 1.114c14.759 6.149 31.897 9.781 49.865 9.92h0.055c16.626-0.116 32.344-3.879 46.435-10.526l-0.675 0.286c48.614-21.55 81.911-69.382 81.911-124.991 0-37.196-14.897-70.913-39.051-95.509l0.020 0.020 39.68-40.64zM344.64 592.64c-11.391-14.077-18.287-32.198-18.287-51.931 0-0.981 0.017-1.958 0.051-2.93l-0.004 0.141c2.21-36.944 30.227-66.718 66.161-71.635l0.399-0.045c1.133-0.043 2.464-0.068 3.8-0.068 20.873 0 40.348 5.983 56.804 16.328l-0.444-0.261zM639.040 339.84c11.68 14.016 18.77 32.213 18.77 52.067 0 2.060-0.076 4.101-0.226 6.123l0.016-0.27c-1.283 22.747-11.214 42.953-26.526 57.568l-0.034 0.032c-11.412 12.873-27.034 21.788-44.691 24.584l-0.429 0.056c-24.484-0.133-47.333-7.017-66.813-18.885l0.573 0.325z" />
<glyph unicode="&#xe91e;" glyph-name="tabs" data-tags="tabs" d="M896 864h-896v-832h1024v704h-128v128zM640 736v64h192v-64zM384 736v64h192v-64zM64 96v704h256v-128h640v-576zM766.080 417.92h-508.16c-18.733 0-33.92-15.187-33.92-33.92s15.187-33.92 33.92-33.92v0h508.16c18.733 0 33.92 15.187 33.92 33.92s-15.187 33.92-33.92 33.92v0zM766.080 530.88h-508.16c-18.733 0-33.92-15.187-33.92-33.92s15.187-33.92 33.92-33.92v0h508.16c18.733 0 33.92 15.187 33.92 33.92s-15.187 33.92-33.92 33.92v0zM649.28 304.96h-398.72c-15.462-3.798-26.753-17.54-26.753-33.92s11.291-30.122 26.514-33.87l0.239-0.050h398.72c15.462 3.798 26.753 17.54 26.753 33.92s-11.291 30.122-26.514 33.87l-0.239 0.050z" />
<glyph unicode="&#xe91f;" glyph-name="add-image" data-tags="add-image" d="M1024 208c0 210.24-326.080 213.44-326.080 0s326.080-213.44 326.080 0zM224 727.68c37.29 0 67.52-30.23 67.52-67.52s-30.23-67.52-67.52-67.52v0c-37.29 0-67.52 30.23-67.52 67.52s30.23 67.52 67.52 67.52v0zM0 848h882.56v-441.6h-43.2v402.56h-800v-583.040h618.56c-1.373-5.866-2.16-12.601-2.16-19.52s0.787-13.654 2.277-20.121l-0.117 0.601h-657.92zM215.36 532.48l110.72-160 40 57.28 178.24 256 178.24-256 37.12-51.2c-45.379-22.838-79.704-62.057-95.613-109.703l-0.387-1.337h-580.8v75.84l6.4 8.96zM836.48 93.76v90.24h-92.16v45.12h92.16v90.88h49.28v-89.92h92.16v-45.12h-92.16v-90.24z" />
</font>
</defs>
</svg>
